<?xml version="1.0" standalone="no"?>
<!DOCTYPE svg PUBLIC "-//W3C//DTD SVG 1.1//EN" "http://www.w3.org/Graphics/SVG/1.1/DTD/svg11.dtd">
<svg xmlns="http://www.w3.org/2000/svg">
<metadata>Copyright (C) 2015 by original authors @ fontello.com</metadata>
<defs>
<font id="icon-font" horiz-adv-x="1000" >
<font-face font-family="icon-font" font-weight="400" font-stretch="normal" units-per-em="1000" ascent="850" descent="-150" />
<missing-glyph horiz-adv-x="1000" />
<glyph glyph-name="location" unicode="&#xe800;" d="m373-145c0 0-374 416-374 622 0 206 168 373 374 373 206 0 373-167 373-373 0-206-373-622-373-622z m0 839c-103 0-187-83-187-186 0-103 84-187 187-187 103 0 186 84 186 187 0 103-83 186-186 186z" horiz-adv-x="767" />
<glyph glyph-name="iphone" unicode="&#xe801;" d="m560-146c0 0-497 0-497 0-35 0-62 28-62 63 0 0 0 870 0 870 0 35 27 63 62 63 0 0 497 0 497 0 35 0 62-28 62-63 0 0 0-870 0-870 0-35-27-63-62-63z m-249 32c18 0 32 13 32 31 0 17-14 31-32 31-17 0-31-14-31-31 0-18 14-31 31-31z m140 901c0 0-279 0-279 0-9 0-16-7-16-15 0-9 7-16 16-16 0 0 279 0 279 0 9 0 16 7 16 16 0 8-7 15-16 15z m109-93c0 0-497 0-497 0 0 0 0-715 0-715 0 0 497 0 497 0 0 0 0 715 0 715z" horiz-adv-x="633" />
<glyph glyph-name="music" unicode="&#xe802;" d="m978 806c0 14-6 26-16 34-10 9-24 12-36 9 0 0-574-122-574-122-20-5-34-22-35-43 0 0-4-514-4-514-31 19-70 31-112 31 0 0-2 0-2 0-109 0-198-76-199-169-1-94 88-171 198-172 0 0 2 0 2 0 109 0 199 76 200 169 0 0 0 0 0 0 0 0 0 0 0 0 0 0 3 448 3 448 0 0 486 104 486 104 0 0-2-288-2-288-32 19-71 30-112 31 0 0-2 0-2 0-109 0-199-76-200-169 0-95 89-172 199-173 0 0 2 0 2 0 101 0 184 65 197 148 1 4 2 8 2 12 0 0 5 664 5 664z m-778-859c0 0-1 0-1 0-61 0-112 39-112 84 0 46 51 83 112 83 0 0 1 0 1 0 61-1 113-39 112-84 0-46-50-83-112-83z m204 597c0 0 0 105 0 105 0 0 487 104 487 104 0 0-1-105-1-105 0 0-486-104-486-104z m370-474c0 0-1 0-1 0-61 0-113 39-112 84 0 45 50 82 112 82 0 0 1 0 1 0 61 0 112-39 112-84 0-45-51-82-112-82z" horiz-adv-x="979" />
<glyph glyph-name="graph2" unicode="&#xe803;" d="m649-126c-42 0-76 34-76 76 0 0 0 824 0 824 0 42 34 76 76 76 42 0 76-34 76-76 0 0 0-824 0-824 0-42-34-76-76-76z m-286 0c-42 0-77 34-77 76 0 0 0 552 0 552 0 42 35 76 77 76 42 0 76-34 76-76 0 0 0-552 0-552 0-42-34-76-76-76z m-286 0c-43 0-77 34-77 76 0 0 0 280 0 280 0 42 34 76 77 76 42 0 76-34 76-76 0 0 0-280 0-280 0-42-34-76-76-76z" horiz-adv-x="723" />
<glyph glyph-name="email" unicode="&#xe804;" d="m1448 624c0 0 0-679 0-679 0 0-408 362-408 362 0 0 408 317 408 317z m-1449 91c0 0 0 135 0 135 0 0 1449 0 1449 0 0 0 0-135 0-135 0 0-724-589-724-589 0 0-725 589-725 589z m0-770c0 0 0 679 0 679 0 0 408-317 408-317 0 0-408-362-408-362z m725 91c0 0 271 226 271 226 0 0 453-407 453-407 0 0-1449 0-1449 0 0 0 453 407 453 407 0 0 272-226 272-226z" horiz-adv-x="1500" />
<glyph glyph-name="basket" unicode="&#xe805;" d="m900 438c0 0-812 0-812 0-49 0-88 39-88 88 0 49 39 88 88 88 0 0 100 0 100 0 1 6 3 12 6 17 0 0 106 183 106 183 20 34 63 46 97 26 34-19 45-63 26-96 0 0-75-130-75-130 0 0 292 0 292 0 0 0-75 130-75 130-19 33-8 77 26 96 34 20 77 8 96-26 0 0 106-183 106-183 3-5 5-11 7-17 0 0 100 0 100 0 49 0 88-39 88-88 0-49-39-88-88-88z m-15-565c0 0-782 0-782 0 0 0-31 530-31 530 0 0 843 0 843 0 0 0-30-530-30-530z m-568 353c0 20-15 35-35 35-19 0-35-15-35-35 0 0 0-212 0-212 0-19 16-35 35-35 20 0 35 16 35 35 0 0 0 212 0 212z m212 0c0 20-16 35-35 35-20 0-35-15-35-35 0 0 0-212 0-212 0-19 15-35 35-35 19 0 35 16 35 35 0 0 0 212 0 212z m212 0c0 20-16 35-35 35-20 0-36-15-36-35 0 0 0-212 0-212 0-19 16-35 36-35 19 0 35 16 35 35 0 0 0 212 0 212z" horiz-adv-x="1000" />
<glyph glyph-name="news" unicode="&#xe806;" d="m1070-102c0 0-951 0-951 0-66 0-119 53-119 119 0 0 0 714 0 714 0 65 53 118 119 118 0 0 951 0 951 0 65 0 119-53 119-118 0 0 0-714 0-714 0-66-54-119-119-119z m-515 674c0 22-18 40-40 40 0 0-396 0-396 0-22 0-40-18-40-40 0 0 0-396 0-396 0-22 18-40 40-40 0 0 396 0 396 0 22 0 40 18 40 40 0 0 0 396 0 396z m515 0c0 0-357 0-357 0-22 0-40-18-40-40 0-21 18-39 40-39 0 0 357 0 357 0 22 0 39 18 39 39 0 22-17 40-39 40z m0-158c0 0-357 0-357 0-22 0-40-18-40-40 0-22 18-40 40-40 0 0 357 0 357 0 22 0 39 18 39 40 0 22-17 40-39 40z m0-159c0 0-357 0-357 0-22 0-40-18-40-40 0-22 18-39 40-39 0 0 357 0 357 0 22 0 39 17 39 39 0 22-17 40-39 40z" horiz-adv-x="1238" />
<glyph glyph-name="star" unicode="&#xe807;" d="m801-130c-9 0-17 3-25 8 0 0-264 171-264 171 0 0-264-171-264-171-16-11-36-10-51 1-15 11-22 31-17 49 0 0 83 294 83 294 0 0-247 209-247 209-14 12-20 31-14 48 6 18 21 30 40 31 0 0 296 22 296 22 0 0 133 292 133 292 7 16 24 26 41 26 18 0 34-10 41-26 0 0 133-292 133-292 0 0 297-22 297-22 18-1 34-13 39-31 6-17 1-36-13-48 0 0-247-209-247-209 0 0 82-294 82-294 5-18-1-38-16-49-8-6-18-9-27-9z m-289 278c9 0 17-2 25-7 0 0 188-122 188-122 0 0-58 206-58 206-5 17 1 36 14 47 0 0 185 156 185 156 0 0-213 16-213 16-16 1-31 11-38 26 0 0-103 226-103 226 0 0-103-226-103-226-7-15-21-25-38-26 0 0-212-16-212-16 0 0 184-156 184-156 14-11 19-30 15-47 0 0-59-206-59-206 0 0 189 122 189 122 7 5 16 7 24 7z" horiz-adv-x="1021" />
<glyph glyph-name="photo" unicode="&#xe808;" d="m1028-110c0 0-959 0-959 0-38 0-69 31-69 69 0 0 0 822 0 822 0 38 31 68 69 68 0 0 959 0 959 0 37 0 68-30 68-68 0 0 0-822 0-822 0-38-31-69-68-69z m-35 788c0 38-30 69-68 69 0 0-754 0-754 0-37 0-68-31-68-69 0 0 0-616 0-616 0-38 31-69 68-69 0 0 754 0 754 0 38 0 68 31 68 69 0 0 0 616 0 616z m-650-342c0 0 137-172 137-172 0 0 34 0 34 0 0 0 240 480 240 480 0 0 205-582 205-582 0 0-822 0-822 0 0 0 206 274 206 274z m-17 102c-67 0-120 54-120 120 0 66 53 120 120 120 66 0 119-54 119-120 0-66-53-120-119-120z" horiz-adv-x="1130" />
<glyph glyph-name="laptop" unicode="&#xe809;" d="m1068-139c0 0-949 0-949 0-44 0-119 35-119 79 0 44 35 79 79 79 0 0 1029 0 1029 0 44 0 79-35 79-79 0-44-75-79-119-79z m-356 79c0 0-237 0-237 0-22 0-40-9-40-20 0-11 18-20 40-20 0 0 237 0 237 0 22 0 40 9 40 20 0 11-18 20-40 20z m-273 502c0 0 73-73 73-73 0 0 236 236 236 236 15 15 40 15 55 0 0 0 56-56 56-56 16-15 16-40 0-56 0 0-306-308-306-308-13-13-33-14-49-5-13-3-27 0-37 10 0 0-139 140-139 140-15 15-15 40 0 56 0 0 56 56 56 56 15 15 40 15 55 0z m550 289c0 0-791 0-791 0 0 0 0-633 0-633 0 0-119 0-119 0 0 0 0 79 0 79 0 0 7 0 7 0-4 13-7 26-7 40 0 0 0 514 0 514 0 66 53 119 119 119 0 0 791 0 791 0 66 0 119-53 119-119 0 0 0-514 0-514 0-14-3-27-7-40 0 0 7 0 7 0 0 0 0-79 0-79 0 0-119 0-119 0 0 0 0 633 0 633z" horiz-adv-x="1206" />
<glyph glyph-name="heart" unicode="&#xe80a;" d="m1018 297c-228-253-429-433-431-435-9-8-20-12-32-12-12 0-23 4-33 12-2 2-203 182-430 435-94 105-118 239-64 360 53 117 164 193 283 193 121 0 199-54 244-111 45 57 123 111 244 111 119 0 230-76 283-193 54-121 30-255-64-360z m-26 320c-36 81-114 135-193 135-163 0-195-124-197-130-5-22-25-37-47-37-23 0-42 15-48 37-3 13-38 130-196 130-80 0-157-54-193-135-39-85-22-178 47-255 170-189 325-336 390-397 65 61 220 208 390 397 68 77 86 170 47 255z m-86-156c-2 0-3 0-4 0-25 0-47 20-48 46-6 86-66 95-69 95-27 4-45 28-42 55 4 27 28 46 55 42 49-7 144-54 153-186 2-27-18-50-45-52z m-63-21c13 0 26-5 35-14 9-9 14-22 14-35 0-13-5-25-14-35-9-9-22-14-35-14-13 0-25 5-34 14-10 10-15 22-15 35 0 13 5 26 15 35 9 9 21 14 34 14z" horiz-adv-x="1128" />
<glyph glyph-name="mobile" unicode="&#xe80b;" d="m682-144c0 0-598 0-598 0-51 0-84 32-84 81 0 0 0 832 0 832 0 49 33 81 84 81 0 0 598 0 598 0 51 0 84-32 84-81 0 0 0-832 0-832 0-49-33-81-84-81z m20 913c0 9 0 16-20 16 0 0-598 0-598 0-20 0-20-7-20-16 0 0 0-832 0-832 0-9 0-16 20-16 0 0 598 0 598 0 20 0 20 7 20 16 0 0 0 832 0 832z m-63-728c0 0-512 0-512 0-12 0-21 10-21 22 0 0 0 649 0 649 0 12 9 21 21 21 0 0 512 0 512 0 12 0 22-9 22-21 0 0 0-649 0-649 0-12-10-22-22-22z m-21 649c0 0-469 0-469 0 0 0 0-606 0-606 0 0 469 0 469 0 0 0 0 606 0 606z m-261-684c14 14 39 14 53 0 7-7 11-16 11-26 0-10-4-20-11-27-7-7-17-11-27-11-10 0-19 4-26 11-7 7-11 17-11 27 0 10 4 19 11 26z" horiz-adv-x="784" />
<glyph glyph-name="graph" unicode="&#xe80c;" d="m74-140c-13 0-26 4-38 11-35 21-46 66-25 101 0 0 168 278 168 278 13 21 35 34 60 35 24 1 47-10 62-30 0 0 68-92 68-92 0 0 150 250 150 250 12 21 34 34 59 35 24 2 48-9 62-29 0 0 130-170 130-170 0 0 346 566 346 566 21 34 66 45 101 24 34-21 45-66 24-101 0 0-402-658-402-658-13-21-35-34-59-35-24-1-47 10-62 29 0 0-129 170-129 170 0 0-150-251-150-251-13-22-35-35-60-36-24-1-48 10-62 30 0 0-69 93-69 93 0 0-112-184-112-184-13-23-38-36-62-36z" horiz-adv-x="1279" />
<glyph glyph-name="locked" unicode="&#xe80d;" d="m645-132c0 0-553 0-553 0-51 0-92 41-92 92 0 0 0 338 0 338 0 51 41 92 92 92 0 0 31 0 31 0 0 0 0 245 0 245 0 119 110 215 245 215 136 0 246-96 246-215 0 0 0-245 0-245 0 0 31 0 31 0 51 0 92-41 92-92 0 0 0-338 0-338 0-51-41-92-92-92z m-154 767c0 51-55 92-123 92-67 0-122-41-122-92 0 0 0-215 0-215 0-10 3-21 7-30 0 0 231 0 231 0 4 9 7 20 7 30 0 0 0 215 0 215z m-123-337c-67 0-122-55-122-123 0-45 24-85 61-106 0 0 0-48 0-48 0-34 28-61 61-61 34 0 62 27 62 61 0 0 0 48 0 48 36 21 61 61 61 106 0 68-55 123-123 123z" horiz-adv-x="737" />
<glyph glyph-name="checkmark" unicode="&#xe80e;" d="m491-131c-271 0-491 220-491 490 0 271 220 491 491 491 270 0 490-220 490-491 0-270-220-490-490-490z m0 942c-249 0-452-203-452-452 0-249 203-451 452-451 248 0 451 202 451 451 0 249-203 452-451 452z m-24-640c-6-6-14-10-22-10-9 0-17 4-23 10 0 0-135 135-135 135-13 12-13 33 0 45 13 13 33 13 46 0 0 0 112-112 112-112 0 0 268 269 268 269 13 12 33 12 46 0 12-13 12-33 0-46 0 0-292-291-292-291z" horiz-adv-x="1000" />
<glyph glyph-name="media" unicode="&#xe80f;" d="m0-23c0-65 4-108 60-75 0 0 234 146 234 146 56 32 148 86 203 118 0 0 252 146 252 146 55 32 57 86 1 118 0 0-249 146-249 146-56 33-143 86-199 118 0 0-242 146-242 146-56 33-60-10-60-75 0 0 0-788 0-788z" horiz-adv-x="857" />
<glyph glyph-name="twitter" unicode="&#xf099;" d="m904 622q-37-54-90-93 0-8 0-23 0-73-21-145t-64-139-103-117-144-82-181-30q-151 0-276 81 19-3 43-3 126 0 224 77-59 2-105 36t-64 89q19-2 34-2 24 0 48 6-63 13-104 62t-41 115v2q38-21 82-23-37 25-59 64t-22 86q0 49 25 91 68-83 164-133t208-55q-5 21-5 41 0 75 53 127t127 53q79 0 132-57 61 12 114 44-20-64-79-100 52 6 104 28z" horiz-adv-x="928.6" />
<glyph glyph-name="facebook" unicode="&#xf09a;" d="m535 843v-147h-87q-48 0-65-20t-17-60v-106h164l-22-165h-142v-424h-171v424h-142v165h142v122q0 104 58 161t155 57q82 0 127-7z" horiz-adv-x="571.4" />
<glyph glyph-name="menu" unicode="&#xf0c9;" d="m857 100v-71q0-15-10-25t-26-11h-785q-15 0-25 11t-11 25v71q0 15 11 25t25 11h785q15 0 26-11t10-25z m0 286v-72q0-14-10-25t-26-10h-785q-15 0-25 10t-11 25v72q0 14 11 25t25 10h785q15 0 26-10t10-25z m0 285v-71q0-15-10-25t-26-11h-785q-15 0-25 11t-11 25v71q0 15 11 26t25 10h785q15 0 26-10t10-26z" horiz-adv-x="857.1" />
<glyph glyph-name="gplus" unicode="&#xf0d5;" d="m410 406q0-20 18-40t43-37 51-41 43-59 18-79q0-50-27-96-40-68-118-101t-166-32q-74 0-138 24t-95 76q-21 34-21 73 0 46 25 84t66 64q73 46 225 56-18 24-26 41t-9 41q0 20 12 48-26-3-38-3-83 0-139 54t-57 137q0 45 20 88t55 73q43 37 102 55t122 18h233l-77-49h-73q41-35 62-74t21-90q0-40-13-72t-33-52-39-36-33-34-14-37z m-81 53q21 0 43 10t37 24q30 32 30 89 0 32-10 69t-27 73-47 57-65 23q-24 0-46-11t-37-29q-26-33-26-89 0-26 5-55t18-57 29-52 42-37 54-15z m1-487q32 0 62 7t55 22 41 41 15 61q0 14-4 27t-8 24-15 23-16 19-22 20-20 16-23 16-21 15q-8 1-26 1-30 0-59-4t-60-14-54-25-38-42-15-59q0-39 19-69t51-46 67-25 71-8z m452 489h119v-60h-119v-122h-59v122h-118v60h118v121h59v-121z" horiz-adv-x="928.6" />
<glyph glyph-name="pinterest" unicode="&#xf231;" d="m0 517q0 60 21 113t58 93 85 69 103 43 112 15q89 0 165-37t123-108 47-160q0-54-10-105t-34-99-56-83-81-58-105-21q-38 0-75 17t-54 50q-5-22-15-63t-14-53-11-40-15-39-17-35-26-44-35-48l-7-3-6 6q-8 88-8 105 0 51 12 115t37 161 29 113q-18 36-18 94 0 46 29 87t74 41q34 0 53-23t19-57q0-37-25-107t-24-104q0-35 25-58t61-23q31 0 57 14t44 38 31 53 21 61 11 62 4 56q0 96-61 150t-160 54q-111 0-186-72t-75-184q0-24 7-47t15-36 15-26 7-17q0-15-8-40t-21-26q-1 0-9 2-29 8-51 31t-34 53-18 60-6 60z" horiz-adv-x="714.3" />
</font>
</defs>
</svg>
